<svg width="40" height="41" viewBox="0 0 40 41" fill="none" xmlns="http://www.w3.org/2000/svg">
<rect y="0.53479" width="40" height="40" rx="20" fill="white"/>
<path fill-rule="evenodd" clip-rule="evenodd" d="M13 15.5348C13 15.2696 13.1054 15.0152 13.2929 14.8277C13.4804 14.6401 13.7348 14.5348 14 14.5348H26C26.2652 14.5348 26.5196 14.6401 26.7071 14.8277C26.8946 15.0152 27 15.2696 27 15.5348C27 15.8 26.8946 16.0544 26.7071 16.2419C26.5196 16.4294 26.2652 16.5348 26 16.5348H14C13.7348 16.5348 13.4804 16.4294 13.2929 16.2419C13.1054 16.0544 13 15.8 13 15.5348ZM13 20.5348C13 20.2696 13.1054 20.0152 13.2929 19.8277C13.4804 19.6401 13.7348 19.5348 14 19.5348H26C26.2652 19.5348 26.5196 19.6401 26.7071 19.8277C26.8946 20.0152 27 20.2696 27 20.5348C27 20.8 26.8946 21.0544 26.7071 21.2419C26.5196 21.4294 26.2652 21.5348 26 21.5348H14C13.7348 21.5348 13.4804 21.4294 13.2929 21.2419C13.1054 21.0544 13 20.8 13 20.5348ZM19 25.5348C19 25.2696 19.1054 25.0152 19.2929 24.8277C19.4804 24.6401 19.7348 24.5348 20 24.5348H26C26.2652 24.5348 26.5196 24.6401 26.7071 24.8277C26.8946 25.0152 27 25.2696 27 25.5348C27 25.8 26.8946 26.0544 26.7071 26.2419C26.5196 26.4294 26.2652 26.5348 26 26.5348H20C19.7348 26.5348 19.4804 26.4294 19.2929 26.2419C19.1054 26.0544 19 25.8 19 25.5348Z" fill="#71543F"/>
</svg>
