<svg width="60" height="60" viewBox="0 0 60 60" fill="none" xmlns="http://www.w3.org/2000/svg">
<circle cx="30.0004" cy="29.9999" r="29.9999" fill="#F89647"/>
<path d="M39.5203 30.8516C40.2962 30.0768 40.888 29.1375 41.2519 28.1032C41.6157 27.0688 41.7424 25.9659 41.6226 24.876C41.5027 23.7861 41.1394 22.737 40.5594 21.8065C39.9794 20.8759 39.1977 20.0876 38.272 19.5C35.927 17.9483 32.7887 17.9366 30.4203 19.465C28.367 20.7833 27.2353 22.8366 27.037 24.96C26.8853 26.5 26.302 27.935 25.2287 29.0083L25.1937 29.0433C23.8403 30.3966 23.8403 32.4616 25.112 33.7216L26.267 34.8766C26.8782 35.4875 27.707 35.8306 28.5712 35.8306C29.4353 35.8306 30.2641 35.4875 30.8753 34.8766C32.007 33.745 33.5003 33.1266 35.122 32.9516C36.7203 32.7766 38.2837 32.0766 39.5203 30.8516ZM23.3037 39.17C23.6187 39.8233 23.5137 40.6166 22.9653 41.1533C22.7278 41.3944 22.4252 41.5609 22.0944 41.6324C21.7637 41.7039 21.4192 41.6774 21.1034 41.556C20.7875 41.4346 20.5139 41.2236 20.3162 40.949C20.1185 40.6744 20.0052 40.348 19.9903 40.01C19.6523 39.995 19.3259 39.8818 19.0513 39.6841C18.7767 39.4864 18.5657 39.2128 18.4443 38.8969C18.3229 38.581 18.2964 38.2366 18.3679 37.9059C18.4394 37.5751 18.6059 37.2724 18.847 37.035C19.3837 36.4983 20.1887 36.3816 20.8303 36.6966L23.7237 33.8616C23.887 34.0833 24.0737 34.34 24.2837 34.55L25.4387 35.705C25.6837 35.9383 25.917 36.1366 26.2203 36.3116L23.3037 39.17Z" fill="white"/>
</svg>
