<svg width="60" height="60" viewBox="0 0 60 60" fill="none" xmlns="http://www.w3.org/2000/svg">
<circle cx="30.0004" cy="29.9999" r="29.9999" fill="#71543F"/>
<path d="M20.281 36.7681L20.2845 36.7655C16.844 33.1115 16.907 27.3418 20.4735 23.7744C22.0485 22.1994 24.1397 21.2281 26.3535 21.0269C27.4697 20.9293 28.5163 20.4431 29.311 19.6531L29.4685 19.4956C31.7347 17.2294 35.394 17.1699 37.7337 19.3163L37.7381 19.3119L37.9218 19.4956L40.4943 22.0681C42.8218 24.3956 42.8218 28.1931 40.4943 30.5206L40.3368 30.6781C39.5493 31.4744 39.0593 32.5244 38.9631 33.6356C38.7706 35.8581 37.7993 37.9494 36.2243 39.5244C32.5843 43.1556 26.6693 43.1556 23.0381 39.5244L20.281 36.7681ZM20.3072 26.1544C18.433 29.16 18.7532 33.1456 21.268 35.8153C22.1999 36.8067 23.3707 37.5424 24.6684 37.9519C25.966 38.3614 27.347 38.431 28.6792 38.1541C29.6152 37.9593 30.5081 37.5964 31.3147 37.0831C31.7435 36.8119 31.9097 36.2606 31.691 35.7969L29.1972 30.5644C28.7044 29.5435 27.8768 28.7221 26.8522 28.2369L21.5935 25.7694C21.1297 25.5594 20.5785 25.7169 20.3072 26.1544ZM32.0585 34.4844C32.13 34.6362 32.2383 34.7676 32.3737 34.8668C32.509 34.9659 32.667 35.0295 32.8333 35.0519C32.9996 35.0743 33.1688 35.0546 33.3256 34.9948C33.4823 34.9349 33.6215 34.8368 33.7306 34.7093C34.4696 33.5832 34.9176 32.2913 35.0343 30.9494C35.1568 29.5144 35.7868 28.1669 36.8018 27.1431L36.9593 26.9856C37.4016 26.5443 37.7494 26.0176 37.9815 25.4375C38.2136 24.8575 38.3252 24.2362 38.3095 23.6116C38.2945 22.9807 38.1498 22.3596 37.8842 21.7871C37.6186 21.2146 37.238 20.7029 36.766 20.284C34.939 18.6609 32.1276 18.779 30.3872 20.5194L30.2822 20.6244C29.2595 21.641 27.9125 22.2665 26.476 22.3919C25.1635 22.5056 23.9035 22.9344 22.801 23.6344C22.136 24.0631 22.1972 25.0606 22.9147 25.3931L27.2197 27.4319C27.225 27.4319 27.2285 27.4345 27.2337 27.4363C27.2381 27.438 27.2425 27.4406 27.246 27.4406C28.0947 27.8344 29.0922 27.6856 29.7572 27.0206L30.4047 26.3731C30.816 25.9619 30.9735 25.3581 30.8072 24.8069C30.6643 24.3326 30.6523 23.8285 30.7724 23.3479C30.8926 22.8673 31.1404 22.4281 31.4897 22.0769C31.7533 21.812 32.0686 21.6042 32.416 21.4665C32.7634 21.3288 33.1354 21.2641 33.5089 21.2764C33.8824 21.2887 34.2493 21.3778 34.5869 21.5381C34.9244 21.6984 35.2254 21.9265 35.471 22.2081C36.3722 23.2231 36.3722 24.7806 35.471 25.8044C34.7272 26.6444 33.6072 26.9156 32.6272 26.6181C32.3538 26.5336 32.0624 26.5256 31.7847 26.595C31.507 26.6644 31.2537 26.8086 31.0522 27.0119L30.4135 27.6506C29.7485 28.3156 29.5997 29.3219 30.0022 30.1706C30.0022 30.175 30.0048 30.1776 30.0075 30.1794C30.0092 30.182 30.0118 30.1838 30.0118 30.1881L32.0593 34.4844H32.0585ZM32.3297 22.8994C31.7435 23.4856 31.7435 24.4306 32.3297 25.0169C32.916 25.6031 33.8697 25.6031 34.456 25.0256C35.0422 24.4394 35.0422 23.4856 34.456 22.8994C34.1738 22.6178 33.7915 22.4596 33.3928 22.4596C32.9942 22.4596 32.6119 22.6178 32.3297 22.8994Z" fill="white"/>
</svg>
