<svg width="60" height="60" viewBox="0 0 60 60" fill="none" xmlns="http://www.w3.org/2000/svg">
<circle cx="30.0009" cy="29.9999" r="29.9999" fill="#71543F"/>
<path fill-rule="evenodd" clip-rule="evenodd" d="M28.581 19.528C28.8425 19.47 29.1161 19.5038 29.3556 19.6237L41.0223 25.457C41.2161 25.5539 41.3791 25.7027 41.493 25.8869C41.6069 26.0711 41.6674 26.2834 41.6675 26.5V31.1667C41.6675 31.4761 41.5446 31.7729 41.3258 31.9917C41.107 32.2105 40.8102 32.3334 40.5008 32.3334C40.299 32.3334 39.9688 32.4034 39.7238 32.5795C39.5383 32.7137 39.3341 32.947 39.3341 33.5C39.3341 34.053 39.5383 34.2864 39.7238 34.4205C39.9688 34.5955 40.299 34.6667 40.5008 34.6667C40.8102 34.6667 41.107 34.7896 41.3258 35.0084C41.5446 35.2272 41.6675 35.524 41.6675 35.8334V39.3334C41.6675 39.6428 41.5446 39.9395 41.3258 40.1583C41.107 40.3771 40.8102 40.5 40.5008 40.5H21.2508C21.0342 40.4999 20.8219 40.4395 20.6377 40.3256C20.4535 40.2116 20.3046 40.0486 20.2078 39.8549C18.6445 36.7294 17.8511 32.3567 18.8825 28.3935C19.936 24.3394 22.8888 20.7939 28.581 19.528ZM25.3341 35.8334C25.0247 35.8334 24.728 35.7105 24.5092 35.4917C24.2904 35.2729 24.1675 34.9761 24.1675 34.6667C24.1675 34.3573 24.2904 34.0605 24.5092 33.8417C24.728 33.623 25.0247 33.5 25.3341 33.5H25.3353C25.6447 33.5 25.9415 33.623 26.1603 33.8417C26.3791 34.0605 26.502 34.3573 26.502 34.6667C26.502 34.9761 26.3791 35.2729 26.1603 35.4917C25.9415 35.7105 25.6447 35.8334 25.3353 35.8334H25.3341ZM30.0008 31.1667C30.0008 31.4761 30.1237 31.7729 30.3425 31.9917C30.5613 32.2105 30.8581 32.3334 31.1675 32.3334H31.1686C31.4781 32.3334 31.7748 32.2105 31.9936 31.9917C32.2124 31.7729 32.3353 31.4761 32.3353 31.1667C32.3353 30.8573 32.2124 30.5605 31.9936 30.3417C31.7748 30.123 31.4781 30 31.1686 30H31.1675C30.8581 30 30.5613 30.123 30.3425 30.3417C30.1237 30.5605 30.0008 30.8573 30.0008 31.1667ZM33.5008 35.8334C33.1914 35.8334 32.8946 35.7105 32.6759 35.4917C32.4571 35.2729 32.3341 34.9761 32.3341 34.6667C32.3341 34.3573 32.4571 34.0605 32.6759 33.8417C32.8946 33.623 33.1914 33.5 33.5008 33.5H33.502C33.8114 33.5 34.1081 33.623 34.3269 33.8417C34.5457 34.0605 34.6686 34.3573 34.6686 34.6667C34.6686 34.9761 34.5457 35.2729 34.3269 35.4917C34.1081 35.7105 33.8114 35.8334 33.502 35.8334H33.5008Z" fill="white"/>
</svg>
