<svg width="50" height="51" viewBox="0 0 50 51" fill="none" xmlns="http://www.w3.org/2000/svg">
<rect y="0.286621" width="50" height="50" rx="25" fill="white"/>
<path d="M34.7104 33.5766L31.0004 29.8966C32.4405 28.1011 33.1379 25.8219 32.9492 23.5279C32.7605 21.2339 31.7001 19.0994 29.9859 17.5633C28.2718 16.0272 26.0342 15.2062 23.7333 15.2691C21.4324 15.3321 19.2431 16.2742 17.6155 17.9018C15.988 19.5294 15.0458 21.7187 14.9829 24.0196C14.9199 26.3205 15.7409 28.558 17.277 30.2722C18.8132 31.9863 20.9477 33.0468 23.2417 33.2355C25.5357 33.4242 27.8148 32.7267 29.6104 31.2866L33.2904 34.9666C33.3834 35.0604 33.494 35.1348 33.6158 35.1855C33.7377 35.2363 33.8684 35.2624 34.0004 35.2624C34.1324 35.2624 34.2631 35.2363 34.385 35.1855C34.5068 35.1348 34.6174 35.0604 34.7104 34.9666C34.8906 34.7802 34.9914 34.531 34.9914 34.2716C34.9914 34.0123 34.8906 33.7631 34.7104 33.5766ZM24.0004 31.2866C22.6159 31.2866 21.2625 30.8761 20.1114 30.1069C18.9603 29.3378 18.063 28.2445 17.5332 26.9654C17.0034 25.6863 16.8648 24.2789 17.1349 22.921C17.405 21.5631 18.0717 20.3159 19.0506 19.3369C20.0296 18.3579 21.2769 17.6912 22.6348 17.4212C23.9926 17.1511 25.4001 17.2897 26.6792 17.8195C27.9583 18.3493 29.0515 19.2465 29.8207 20.3977C30.5899 21.5488 31.0004 22.9022 31.0004 24.2866C31.0004 26.1432 30.2629 27.9236 28.9501 29.2364C27.6374 30.5491 25.8569 31.2866 24.0004 31.2866Z" fill="#71543F"/>
</svg>
