<svg width="60" height="60" viewBox="0 0 60 60" fill="none" xmlns="http://www.w3.org/2000/svg">
<circle cx="30.0009" cy="29.9999" r="29.9999" fill="#F89647"/>
<g clip-path="url(#clip0_2012_14452)">
<path d="M24.7751 24.8785C26.6807 23.2743 29.2522 21.8889 32.3341 21.8889C35.4161 21.8889 37.9876 23.2743 39.8932 24.8785C41.7939 26.4827 43.1453 28.3979 43.8307 29.7299C44.0591 30.1771 44.0591 30.707 43.8307 31.1542C43.1453 32.4861 41.7939 34.4014 39.8932 36.0056C37.9876 37.6146 35.4161 39 32.3341 39C29.2522 39 26.6807 37.6146 24.7751 36.0104C23.9876 35.3445 23.2925 34.625 22.6994 33.9153L18.339 36.4528C17.7314 36.8077 16.9584 36.7104 16.4578 36.2146C15.9571 35.7188 15.855 34.9507 16.205 34.3382L18.4314 30.4445L16.205 26.5507C15.855 25.9382 15.9619 25.1702 16.4626 24.6743C16.9633 24.1785 17.7314 24.0813 18.3439 24.4361L22.7043 26.9785C23.2973 26.2688 23.9925 25.5493 24.78 24.8834L24.7751 24.8785ZM37.7786 30.4445C37.7786 30.0319 37.6147 29.6363 37.323 29.3445C37.0312 29.0528 36.6356 28.8889 36.223 28.8889C35.8105 28.8889 35.4148 29.0528 35.1231 29.3445C34.8314 29.6363 34.6675 30.0319 34.6675 30.4445C34.6675 30.857 34.8314 31.2527 35.1231 31.5444C35.4148 31.8361 35.8105 32 36.223 32C36.6356 32 37.0312 31.8361 37.323 31.5444C37.6147 31.2527 37.7786 30.857 37.7786 30.4445Z" fill="white"/>
</g>
<defs>
<clipPath id="clip0_2012_14452">
<rect width="28" height="24.8889" fill="white" transform="translate(16.001 18)"/>
</clipPath>
</defs>
</svg>
