<svg width="28" height="28" viewBox="0 0 28 28" fill="none" xmlns="http://www.w3.org/2000/svg">
<rect x="1" y="1" width="26" height="26" rx="13" stroke="white" stroke-width="2"/>
<path d="M13.5618 20.7459C13.397 20.5765 13.3107 20.3608 13.3029 20.099C13.2957 19.8372 13.3745 19.6216 13.5393 19.4521L17.9438 14.9241H7.89888C7.64419 14.9241 7.43056 14.8354 7.25798 14.658C7.08599 14.4811 7 14.2618 7 14C7 13.7382 7.08599 13.5185 7.25798 13.3411C7.43056 13.1643 7.64419 13.0759 7.89888 13.0759H17.9438L13.5393 8.54785C13.3745 8.37844 13.2957 8.16282 13.3029 7.90099C13.3107 7.63916 13.397 7.42354 13.5618 7.25413C13.7266 7.08471 13.9363 7 14.191 7C14.4457 7 14.6554 7.08471 14.8202 7.25413L20.7528 13.3531C20.8427 13.4301 20.9065 13.5262 20.9443 13.6415C20.9814 13.7573 21 13.8768 21 14C21 14.1232 20.9814 14.2387 20.9443 14.3465C20.9065 14.4543 20.8427 14.5545 20.7528 14.6469L14.8202 20.7459C14.6554 20.9153 14.4457 21 14.191 21C13.9363 21 13.7266 20.9153 13.5618 20.7459Z" fill="white"/>
</svg>
