<svg width="51" height="51" viewBox="0 0 51 51" fill="none" xmlns="http://www.w3.org/2000/svg">
<rect y="0.286621" width="51" height="50" rx="25" fill="white"/>
<path fill-rule="evenodd" clip-rule="evenodd" d="M28.5002 17.4296C28.5002 17.2402 28.5792 17.0585 28.7198 16.9245C28.8605 16.7906 29.0512 16.7153 29.2502 16.7153H33.7502C33.9491 16.7153 34.1398 16.7906 34.2805 16.9245C34.4211 17.0585 34.5002 17.2402 34.5002 17.4296V21.7153C34.5002 21.9048 34.4211 22.0865 34.2805 22.2204C34.1398 22.3544 33.9491 22.4296 33.7502 22.4296C33.5512 22.4296 33.3605 22.3544 33.2198 22.2204C33.0792 22.0865 33.0002 21.9048 33.0002 21.7153V19.1534L28.2802 23.6487C28.2115 23.7188 28.1287 23.7751 28.0367 23.8142C27.9447 23.8532 27.8454 23.8742 27.7447 23.8759C27.644 23.8776 27.5439 23.8599 27.4506 23.824C27.3572 23.7881 27.2723 23.7346 27.2011 23.6668C27.1299 23.599 27.0738 23.5182 27.036 23.4292C26.9983 23.3403 26.9798 23.245 26.9816 23.1491C26.9833 23.0532 27.0054 22.9586 27.0464 22.871C27.0874 22.7834 27.1465 22.7045 27.2202 22.6391L31.9402 18.1439H29.2502C29.0512 18.1439 28.8605 18.0686 28.7198 17.9347C28.5792 17.8007 28.5002 17.6191 28.5002 17.4296Z" fill="#71543F"/>
<path fill-rule="evenodd" clip-rule="evenodd" d="M15 18.1438C15 17.386 15.3161 16.6593 15.8787 16.1235C16.4413 15.5876 17.2044 15.2866 18 15.2866H19.372C20.232 15.2866 20.982 15.8447 21.191 16.639L22.296 20.8514C22.3855 21.1923 22.3675 21.5509 22.244 21.8821C22.1206 22.2133 21.8972 22.5024 21.602 22.7133L20.309 23.6371C20.174 23.7333 20.145 23.8742 20.183 23.9723C20.7474 25.4341 21.6386 26.7616 22.7949 27.8629C23.9513 28.9641 25.3451 29.8129 26.88 30.3504C26.983 30.3866 27.13 30.359 27.232 30.2304L28.202 28.999C28.4234 28.7178 28.727 28.5051 29.0748 28.3876C29.4225 28.27 29.799 28.2528 30.157 28.338L34.58 29.3904C35.414 29.5895 36 30.3038 36 31.1238V32.4295C36 33.1872 35.6839 33.914 35.1213 34.4498C34.5587 34.9856 33.7956 35.2866 33 35.2866H30.75C22.052 35.2866 15 28.5704 15 20.2866V18.1438Z" fill="#71543F"/>
</svg>
