<svg width="60" height="60" viewBox="0 0 60 60" fill="none" xmlns="http://www.w3.org/2000/svg">
<circle cx="29.9999" cy="29.9999" r="29.9999" fill="#F89647"/>
<path d="M36.2573 20.9213L33.924 19.6963C31.8753 18.6218 30.851 18.084 29.7496 18.084C28.6483 18.084 27.624 18.6206 25.5753 19.6963L23.242 20.9213C21.1735 22.0063 19.9567 22.6456 19.203 23.4996L29.7496 28.7729L40.2963 23.4996C39.5426 22.6456 38.3269 22.0063 36.2573 20.9213ZM41.1223 25.042L30.6246 30.2919V41.3052C31.4623 41.0964 32.4155 40.5971 33.924 39.8049L36.2573 38.5799C38.7668 37.2628 40.0221 36.6048 40.7198 35.4206C41.4163 34.2376 41.4163 32.7641 41.4163 29.8206V29.6841C41.4163 27.4756 41.4163 26.0943 41.1223 25.042ZM28.8746 41.3052V30.2919L18.377 25.042C18.083 26.0943 18.083 27.4756 18.083 29.6818V29.8183C18.083 32.7641 18.083 34.2376 18.7795 35.4206C19.4772 36.6048 20.7325 37.2639 23.242 38.5811L25.5753 39.8049C27.0838 40.5971 28.037 41.0964 28.8746 41.3052Z" fill="white"/>
</svg>
