<svg width="60" height="60" viewBox="0 0 60 60" fill="none" xmlns="http://www.w3.org/2000/svg">
<circle cx="29.9999" cy="29.9999" r="29.9999" fill="#71543F"/>
<path d="M30 30C28.35 30 26.9375 29.4125 25.7625 28.2375C24.5875 27.0625 24 25.65 24 24C24 22.35 24.5875 20.9375 25.7625 19.7625C26.9375 18.5875 28.35 18 30 18C31.65 18 33.0624 18.5875 34.2374 19.7625C35.4124 20.9375 35.9999 22.35 35.9999 24C35.9999 25.65 35.4124 27.0625 34.2374 28.2375C33.0624 29.4125 31.65 30 30 30ZM21 41.9999C20.175 41.9999 19.4685 41.7059 18.8805 41.1179C18.2925 40.5299 17.999 39.8239 18 38.9999V37.7999C18 36.9499 18.219 36.1684 18.657 35.4554C19.095 34.7424 19.676 34.1989 20.4 33.8249C21.95 33.0499 23.525 32.4684 25.125 32.0805C26.725 31.6925 28.35 31.499 30 31.5C31.65 31.5 33.2749 31.694 34.8749 32.0819C36.4749 32.4699 38.0499 33.0509 39.5999 33.8249C40.3249 34.1999 40.9064 34.7439 41.3444 35.4569C41.7824 36.1699 42.0009 36.9509 41.9999 37.7999V38.9999C41.9999 39.8249 41.7059 40.5314 41.1179 41.1194C40.5299 41.7074 39.8239 42.0009 38.9999 41.9999H21Z" fill="white"/>
</svg>
