<svg width="50" height="51" viewBox="0 0 50 51" fill="none" xmlns="http://www.w3.org/2000/svg">
<rect x="0.970874" y="-0.970874" width="48.0583" height="48.0583" rx="24.0291" transform="matrix(1 -8.74228e-08 -8.74228e-08 -1 -8.48765e-08 48.5583)" stroke="#71543F" stroke-width="1.94175"/>
<path d="M24.3005 18.1997C24.1172 18.383 24.0212 18.6164 24.0125 18.8997C24.0045 19.183 24.0922 19.4164 24.2755 19.5997L29.1755 24.4997L18.0005 24.4997C17.7172 24.4997 17.4795 24.5957 17.2875 24.7877C17.0962 24.979 17.0005 25.2164 17.0005 25.4997C17.0005 25.783 17.0962 26.0207 17.2875 26.2127C17.4795 26.404 17.7172 26.4997 18.0005 26.4997L29.1755 26.4997L24.2755 31.3997C24.0922 31.583 24.0045 31.8164 24.0125 32.0997C24.0212 32.383 24.1172 32.6164 24.3005 32.7997C24.4838 32.983 24.7172 33.0747 25.0005 33.0747C25.2838 33.0747 25.5172 32.983 25.7005 32.7997L32.3005 26.1997C32.4005 26.1164 32.4715 26.0124 32.5135 25.8877C32.5548 25.7624 32.5755 25.633 32.5755 25.4997C32.5755 25.3664 32.5548 25.2414 32.5135 25.1247C32.4715 25.008 32.4005 24.8997 32.3005 24.7997L25.7005 18.1997C25.5172 18.0164 25.2838 17.9247 25.0005 17.9247C24.7172 17.9247 24.4838 18.0164 24.3005 18.1997Z" fill="#71543F"/>
</svg>
