<svg width="50" height="51" viewBox="0 0 50 51" fill="none" xmlns="http://www.w3.org/2000/svg">
<rect x="49.0291" y="49.5291" width="48.0583" height="48.0583" rx="24.0291" transform="rotate(-180 49.0291 49.5291)" stroke="#71543F" stroke-width="1.94175"/>
<path d="M25.6995 18.1997C25.8828 18.383 25.9788 18.6164 25.9875 18.8997C25.9955 19.183 25.9078 19.4164 25.7245 19.5997L20.8245 24.4997L31.9995 24.4997C32.2828 24.4997 32.5205 24.5957 32.7125 24.7877C32.9038 24.979 32.9995 25.2164 32.9995 25.4997C32.9995 25.783 32.9038 26.0207 32.7125 26.2127C32.5205 26.404 32.2828 26.4997 31.9995 26.4997L20.8245 26.4997L25.7245 31.3997C25.9078 31.583 25.9955 31.8164 25.9875 32.0997C25.9788 32.383 25.8828 32.6164 25.6995 32.7997C25.5162 32.983 25.2828 33.0747 24.9995 33.0747C24.7162 33.0747 24.4828 32.983 24.2995 32.7997L17.6995 26.1997C17.5995 26.1164 17.5285 26.0124 17.4865 25.8877C17.4452 25.7624 17.4245 25.633 17.4245 25.4997C17.4245 25.3664 17.4452 25.2414 17.4865 25.1247C17.5285 25.008 17.5995 24.8997 17.6995 24.7997L24.2995 18.1997C24.4828 18.0164 24.7162 17.9247 24.9995 17.9247C25.2828 17.9247 25.5162 18.0164 25.6995 18.1997Z" fill="#71543F"/>
</svg>
