<svg width="29" height="28" viewBox="0 0 29 28" fill="none" xmlns="http://www.w3.org/2000/svg">
<rect x="1.5" y="1" width="26" height="26" rx="13" stroke="#3F3F3F" stroke-width="2"/>
<path d="M8.73598 11.0931C8.89329 10.9401 9.09351 10.8599 9.33664 10.8527C9.57976 10.846 9.77998 10.9192 9.9373 11.0722L14.1419 15.1621L14.1419 5.83467C14.1419 5.59818 14.2243 5.39981 14.389 5.23955C14.5532 5.07985 14.7569 5 15 5C15.2431 5 15.4471 5.07985 15.6118 5.23955C15.776 5.39981 15.8581 5.59818 15.8581 5.83467L15.8581 15.1621L20.0627 11.0722C20.22 10.9192 20.4202 10.846 20.6634 10.8527C20.9065 10.8599 21.1067 10.9401 21.264 11.0931C21.4213 11.2461 21.5 11.4409 21.5 11.6774C21.5 11.9139 21.4213 12.1086 21.264 12.2616L15.6007 17.7705C15.5292 17.8539 15.4399 17.9132 15.3329 17.9483C15.2254 17.9828 15.1144 18 15 18C14.8856 18 14.7783 17.9828 14.6782 17.9483C14.5781 17.9132 14.4851 17.8539 14.3993 17.7705L8.73598 12.2616C8.57866 12.1086 8.5 11.9139 8.5 11.6774C8.5 11.4409 8.57866 11.2461 8.73598 11.0931Z" fill="#3F3F3F"/>
<path d="M7.5 20.5H21" stroke="#3F3F3F" stroke-width="1.5" stroke-linecap="round"/>
</svg>
