<svg width="60" height="60" viewBox="0 0 60 60" fill="none" xmlns="http://www.w3.org/2000/svg">
<circle cx="29.9999" cy="29.9999" r="29.9999" fill="#71543F"/>
<path d="M40.9999 30.5C40.9999 29.0109 39.8226 27.8 38.3749 27.8H37.0624V23.75C37.0624 20.028 34.1185 17 30.5 17C26.8814 17 23.9375 20.028 23.9375 23.75V27.8H22.625C21.1773 27.8 20 29.0109 20 30.5V41.2999C20 42.789 21.1773 43.9999 22.625 43.9999H38.3749C39.8226 43.9999 40.9999 42.789 40.9999 41.2999V30.5ZM26.5625 23.75C26.5625 21.5171 28.3291 19.7 30.5 19.7C32.6708 19.7 34.4374 21.5171 34.4374 23.75V27.8H26.5625V23.75Z" fill="white"/>
</svg>
