<svg width="60" height="60" viewBox="0 0 60 60" fill="none" xmlns="http://www.w3.org/2000/svg">
<circle cx="29.9999" cy="29.9999" r="29.9999" fill="#F89647"/>
<g clip-path="url(#clip0_2925_5742)">
<path d="M15.8892 27.3893C15.8057 28.0573 15.75 28.7364 15.75 29.4266C15.75 35.494 19.0731 40.7765 23.9938 43.5764L24.9123 41.6393V28.408L23.8936 27.3893H15.8892ZM44.2499 28.408C44.2499 27.3893 43.2312 26.3707 42.2126 26.3707H34.069C34.5755 24.3334 35.0876 22.3016 35.0876 21.283C35.0876 19.2457 34.069 17.214 33.5624 16.7019C33.5513 16.6907 33.0559 16.1953 32.0372 16.1953C30.5121 16.1953 30.5121 17.7205 30.5121 17.7205C30.5121 17.7483 30.0055 20.2643 30.0055 21.283C30.0055 22.3016 27.9682 26.3707 26.9496 27.3893L25.9309 27.8959V42.1458L26.9496 42.6523H38.1436C40.1809 42.6523 41.1995 41.6337 41.1995 40.615C41.1995 39.5964 40.1809 38.5778 39.1622 38.5778C41.1995 38.5778 42.2182 37.5591 42.2182 36.5405C42.2182 35.5218 41.1995 34.5032 40.1809 34.5032C42.2182 34.5032 43.2368 33.4845 43.2368 32.4659C43.2368 31.4472 42.2182 30.4286 41.1995 30.4286C43.2313 30.4453 44.2499 29.4266 44.2499 28.408Z" fill="white"/>
</g>
<defs>
<clipPath id="clip0_2925_5742">
<rect width="28.4999" height="28.4999" fill="white" transform="translate(15.75 15.75)"/>
</clipPath>
</defs>
</svg>
