<svg width="428" height="34" viewBox="0 0 428 34" fill="none" xmlns="http://www.w3.org/2000/svg">
<path d="M2.45087 33.0515C1.45436 33.0515 0.818835 31.9876 1.2912 31.1101L17.3293 1.31871C17.5589 0.89205 18.0044 0.625977 18.4889 0.625977H32.5862C35.1455 0.625977 37.1288 1.10096 38.5361 2.05093C39.9435 3.00089 40.7176 4.33612 40.8584 6.05661C40.9992 7.7771 40.4513 9.78786 39.2147 12.0889C37.9628 14.4321 36.3336 16.4535 34.3269 18.1528C32.3352 19.8417 30.1013 21.1452 27.6251 22.0635C25.164 22.9713 22.6089 23.4251 19.9599 23.4251H13.276C12.2792 23.4251 11.6437 22.3606 12.1167 21.4832L14.3837 17.2775C14.6135 16.8512 15.0587 16.5854 15.543 16.5854H21.761C22.8835 16.5854 23.9362 16.406 24.9191 16.0471C25.9058 15.6776 26.7833 15.1604 27.5514 14.4955C28.3234 13.8199 28.956 13.0177 29.4492 12.0889C29.9424 11.16 30.1558 10.3684 30.0895 9.71398C30.0383 9.049 29.7165 8.54235 29.1241 8.19403C28.5468 7.83516 27.7081 7.65572 26.6081 7.65572H24.094C23.6098 7.65572 23.1647 7.92134 22.9348 8.34743L9.98071 32.3597C9.75084 32.7858 9.30573 33.0515 8.82158 33.0515H2.45087Z" fill="#F89647"/>
<path d="M34.5142 33.0515C33.5176 33.0515 32.8821 31.9876 33.3545 31.1101L49.3925 1.31871C49.6222 0.89205 50.0676 0.625977 50.5522 0.625977H64.6495C67.2087 0.625977 69.211 1.06402 70.6563 1.9401C72.1017 2.81617 72.9137 4.07752 73.0925 5.72413C73.2713 7.37073 72.7423 9.34455 71.5057 11.6456C70.2615 13.9677 68.6608 15.9257 66.7035 17.5195C64.7612 19.1028 62.5804 20.3061 60.1611 21.1294C57.7568 21.9421 55.2413 22.3485 52.6147 22.3485H45.9308C44.934 22.3485 44.2985 21.284 44.7715 20.4066L47.0385 16.2009C47.2683 15.7746 47.7136 15.5088 48.1979 15.5088H54.4158C55.5159 15.5088 56.527 15.3821 57.4493 15.1288C58.3754 14.8649 59.1978 14.4532 59.9166 13.8938C60.6391 13.3238 61.247 12.5744 61.7402 11.6456C62.2334 10.7167 62.4279 9.96203 62.3236 9.38149C62.2232 8.7904 61.8578 8.35764 61.2275 8.0832C60.601 7.79821 59.749 7.65572 58.6714 7.65572H56.1572C55.6731 7.65572 55.228 7.92134 54.9981 8.34743L42.044 32.3597C41.8141 32.7858 41.369 33.0515 40.8849 33.0515H34.5142ZM59.2609 18.1687C59.9673 18.1687 60.5479 18.726 60.5768 19.4318L61.0784 31.6805C61.109 32.4284 60.511 33.0515 59.7625 33.0515H52.2464C51.5331 33.0515 50.9494 32.4835 50.9299 31.7705L50.5945 19.5217C50.5743 18.7805 51.1696 18.1687 51.9111 18.1687H59.2609Z" fill="#F89647"/>
<path d="M67.5961 33.0515C66.5996 33.0515 65.9641 31.9876 66.4364 31.1101L82.4745 1.31871C82.7042 0.89205 83.1496 0.625977 83.6341 0.625977H105.487C106.485 0.625977 107.12 1.69322 106.645 2.57077L104.227 7.02977C103.997 7.45451 103.552 7.71905 103.069 7.71905H89.1548C88.6676 7.71905 88.2201 7.98808 87.9916 8.41844L86.431 11.3575C85.9652 12.2347 86.6011 13.2922 87.5943 13.2922H97.402C98.4003 13.2922 99.0356 14.3594 98.5598 15.237L96.1421 19.696C95.9118 20.1207 95.4675 20.3853 94.9843 20.3853H82.3497C81.8625 20.3853 81.415 20.6543 81.1865 21.0846L79.6259 24.0237C79.1601 24.9009 79.796 25.9584 80.7891 25.9584H91.8092C92.8074 25.9584 93.4428 27.0256 92.967 27.9032L90.5493 32.3622C90.319 32.7869 89.8746 33.0515 89.3915 33.0515H67.5961Z" fill="#F89647"/>
<path d="M112.917 1.31871C113.147 0.89205 113.592 0.625977 114.077 0.625977H123.484C124.264 0.625977 124.873 1.29998 124.794 2.07593L123.108 18.7009C123.092 18.8567 123.214 18.992 123.371 18.992C123.442 18.992 123.511 18.9632 123.56 18.9121L140.987 1.02398C141.235 0.769506 141.575 0.625977 141.93 0.625977H150.821C151.818 0.625977 152.453 1.68987 151.981 2.56732L135.943 32.3587C135.713 32.7854 135.267 33.0515 134.783 33.0515H128.614C127.618 33.0515 126.982 31.988 127.454 31.1106L136.391 14.4943C136.437 14.409 136.375 14.3055 136.278 14.3055C136.243 14.3055 136.21 14.3199 136.185 14.3453L119.011 32.3891C118.763 32.6503 118.418 32.7981 118.057 32.7981H114.594C113.801 32.7981 113.188 32.1024 113.287 31.3156L115.436 14.354C115.448 14.261 115.375 14.1788 115.282 14.1788C115.225 14.1788 115.172 14.2102 115.145 14.2605L105.367 32.3604C105.137 32.7861 104.692 33.0515 104.208 33.0515H98.0388C97.0423 33.0515 96.4068 31.9876 96.8792 31.1101L112.917 1.31871Z" fill="#F89647"/>
<path d="M165.567 0.625977C166.564 0.625977 167.199 1.68987 166.727 2.56732L150.689 32.3587C150.459 32.7854 150.014 33.0515 149.529 33.0515H143.159C142.163 33.0515 141.527 31.9876 142 31.1101L158.038 1.31871C158.267 0.89205 158.713 0.625977 159.197 0.625977H165.567Z" fill="#F89647"/>
<path d="M193.191 1.3186C193.42 0.892001 193.866 0.625977 194.35 0.625977H200.72C201.716 0.625977 202.352 1.69 201.879 2.56745L191.739 21.3986C190.419 23.8685 188.647 26.0059 186.422 27.8108C184.213 29.6052 181.724 30.9932 178.955 31.9748C176.191 32.9459 173.332 33.4314 170.38 33.4314C167.405 33.4314 165.067 32.9459 163.364 31.9748C161.665 30.9932 160.674 29.6052 160.392 27.8108C160.124 26.0059 160.651 23.8685 161.971 21.3986L172.784 1.31858C173.014 0.891992 173.459 0.625977 173.944 0.625977H180.313C181.31 0.625977 181.945 1.68998 181.473 2.56743L171.742 20.6386C171.211 21.6413 170.972 22.5332 171.027 23.3143C171.081 24.0954 171.402 24.7129 171.99 25.1667C172.581 25.6101 173.41 25.8317 174.477 25.8317C175.554 25.8317 176.628 25.6101 177.697 25.1667C178.782 24.7129 179.769 24.0954 180.657 23.3143C181.546 22.5332 182.256 21.6413 182.787 20.6386L193.191 1.3186Z" fill="#F89647"/>
<path d="M207.95 1.31871C208.179 0.89205 208.625 0.625977 209.109 0.625977H218.516C219.296 0.625977 219.905 1.29998 219.827 2.07593L218.14 18.7009C218.124 18.8567 218.247 18.992 218.403 18.992C218.475 18.992 218.543 18.9632 218.593 18.9121L236.019 1.02398C236.267 0.769506 236.607 0.625977 236.962 0.625977H245.853C246.85 0.625977 247.485 1.68987 247.013 2.56732L230.975 32.3587C230.745 32.7854 230.3 33.0515 229.815 33.0515H223.646C222.65 33.0515 222.015 31.988 222.486 31.1106L231.423 14.4943C231.469 14.409 231.407 14.3055 231.31 14.3055C231.275 14.3055 231.242 14.3199 231.218 14.3453L214.044 32.3891C213.795 32.6503 213.45 32.7981 213.09 32.7981H209.626C208.833 32.7981 208.22 32.1024 208.32 31.3156L210.468 14.354C210.48 14.261 210.408 14.1788 210.314 14.1788C210.257 14.1788 210.204 14.2102 210.177 14.2605L200.399 32.3604C200.169 32.7861 199.724 33.0515 199.24 33.0515H193.071C192.075 33.0515 191.439 31.9876 191.911 31.1101L207.95 1.31871Z" fill="#F89647"/>
<path d="M280.603 2.08753C280.827 1.68338 281.253 1.43278 281.716 1.43278H288.095C289.067 1.43278 289.681 2.47686 289.209 3.32602L278.983 21.7114C277.651 24.1226 275.874 26.2092 273.65 27.9712C271.441 29.7229 268.959 31.0779 266.202 32.0362C263.449 32.9842 260.606 33.4582 257.675 33.4582C254.722 33.4582 252.404 32.9842 250.721 32.0362C249.042 31.0779 248.07 29.7229 247.805 27.9712C247.554 26.2092 248.094 24.1226 249.426 21.7114L260.341 2.08751C260.566 1.68337 260.992 1.43278 261.454 1.43278H267.834C268.805 1.43278 269.419 2.47684 268.947 3.326L259.134 20.9695C258.598 21.9484 258.354 22.8191 258.401 23.5816C258.448 24.3441 258.762 24.9469 259.342 25.39C259.926 25.8228 260.747 26.0392 261.806 26.0392C262.876 26.0392 263.944 25.8228 265.009 25.39C266.09 24.9469 267.075 24.3441 267.964 23.5816C268.853 22.8191 269.565 21.9484 270.101 20.9695L280.603 2.08753Z" fill="#71543F"/>
<path d="M280.185 33.0872C279.214 33.0872 278.6 32.0433 279.072 31.1941L295.257 2.08764C295.482 1.68343 295.908 1.43278 296.37 1.43278H310.399C312.94 1.43278 314.906 1.89647 316.295 2.82384C317.685 3.75122 318.442 5.0547 318.568 6.73428C318.693 8.41387 318.132 10.3768 316.886 12.6231C315.623 14.9107 313.989 16.8839 311.982 18.5429C309.99 20.1916 307.762 21.4641 305.295 22.3606C302.844 23.2467 300.303 23.6898 297.673 23.6898H291.014C290.042 23.6898 289.428 22.6453 289.901 21.7961L292.2 17.667C292.424 17.2631 292.85 17.0127 293.313 17.0127H299.518C300.633 17.0127 301.68 16.8375 302.659 16.4872C303.641 16.1266 304.517 15.6216 305.285 14.9725C306.057 14.313 306.692 13.5299 307.189 12.6231C307.687 11.7164 307.905 10.9435 307.845 10.3047C307.799 9.65552 307.484 9.16092 306.899 8.82088C306.329 8.47054 305.497 8.29537 304.405 8.29537H301.877C301.415 8.29537 300.989 8.54559 300.764 8.94925L287.679 32.4334C287.454 32.837 287.028 33.0872 286.566 33.0872H280.185Z" fill="#71543F"/>
<path d="M314.854 32.6569C314.612 32.9305 314.264 33.0872 313.899 33.0872H307.331C306.224 33.0872 305.644 31.772 306.39 30.9542L332.967 1.84774C333.208 1.58338 333.549 1.43278 333.907 1.43278H344.498C345.302 1.43278 345.905 2.16745 345.748 2.95546L339.955 32.062C339.836 32.658 339.313 33.0872 338.705 33.0872H331.321C330.502 33.0872 329.896 32.3251 330.08 31.5269L334.968 10.342C334.99 10.2438 334.916 10.1501 334.815 10.1501C334.77 10.1501 334.727 10.1694 334.698 10.203L314.854 32.6569ZM319.211 21.247C319.437 20.8464 319.861 20.5986 320.321 20.5986H336.253C337.228 20.5986 337.842 21.6489 337.363 22.4981L335.175 26.38C334.949 26.7806 334.525 27.0284 334.065 27.0284H318.133C317.158 27.0284 316.544 25.9781 317.023 25.1288L319.211 21.247Z" fill="#71543F"/>
<path d="M385.631 12.5564C385.441 13.0156 384.986 13.3032 384.489 13.3032H378.011C377.079 13.3032 376.491 12.3261 376.611 11.4012C376.614 11.3756 376.617 11.3501 376.62 11.3248C376.685 10.7375 376.608 10.2326 376.388 9.81008C376.172 9.37731 375.8 9.04757 375.272 8.82088C374.745 8.59419 374.057 8.48084 373.21 8.48084C371.583 8.48084 369.987 8.85695 368.422 9.60915C366.861 10.3511 365.395 11.4175 364.025 12.8086C362.658 14.1894 361.435 15.838 360.357 17.7546C359.347 19.6094 358.755 21.1498 358.584 22.376C358.423 23.6022 358.663 24.5193 359.303 25.1273C359.955 25.7352 360.983 26.0392 362.387 26.0392C363.323 26.0392 364.22 25.9361 365.078 25.7301C365.947 25.524 366.759 25.2303 367.516 24.849C368.287 24.4575 368.991 23.9938 369.628 23.458C370.108 23.0556 370.542 22.6225 370.93 22.1586C371.191 21.847 371.569 21.6496 371.975 21.6496H378.357C379.365 21.6496 379.951 22.7511 379.309 23.5284C378.702 24.2636 378.011 25.0078 377.237 25.761C375.799 27.152 374.135 28.4349 372.244 29.6096C370.356 30.774 368.296 31.7168 366.063 32.4381C363.83 33.1594 361.487 33.52 359.036 33.52C355.826 33.52 353.301 32.8709 351.46 31.5725C349.631 30.2742 348.662 28.3782 348.553 25.8846C348.455 23.391 349.393 20.3513 351.367 16.7654C353.295 13.3032 355.619 10.4026 358.338 8.06352C361.058 5.72447 363.956 3.96245 367.032 2.77747C370.109 1.59249 373.129 1 376.094 1C378.334 1 380.237 1.27306 381.804 1.81918C383.381 2.36531 384.579 3.16388 385.399 4.21491C386.233 5.25563 386.653 6.5385 386.658 8.06352C386.663 9.39283 386.32 10.8905 385.631 12.5564Z" fill="#71543F"/>
<path d="M381.669 33.0872C380.698 33.0872 380.084 32.0433 380.556 31.1941L396.741 2.08764C396.965 1.68343 397.392 1.43278 397.854 1.43278H404.237C405.208 1.43278 405.822 2.47514 405.352 3.32427L399.498 13.8875C399.413 14.0415 399.524 14.2306 399.7 14.2306C399.749 14.2306 399.797 14.2148 399.837 14.1856L416.829 1.68069C417.048 1.51964 417.312 1.43278 417.584 1.43278H424.086C425.32 1.43278 425.833 3.01029 424.837 3.73649L409.249 15.0916C408.878 15.3619 408.681 15.8107 408.734 16.2667L410.502 31.6679C410.589 32.4242 409.997 33.0872 409.236 33.0872H400.734C400.073 33.0872 399.521 32.5809 399.465 31.9217L398.741 23.456C398.657 22.4699 397.53 21.9523 396.727 22.531L393.548 24.8227C393.397 24.9317 393.271 25.0725 393.181 25.2352L389.163 32.4342C388.938 32.8374 388.512 33.0872 388.05 33.0872H381.669Z" fill="#71543F"/>
</svg>
