<svg width="32" height="32" viewBox="0 0 32 32" fill="none" xmlns="http://www.w3.org/2000/svg">
<path fill-rule="evenodd" clip-rule="evenodd" d="M31.2054 22.4864C30.4801 21.0257 29.5243 19.6913 28.3747 18.5344C27.9902 18.0999 27.5876 17.6818 27.168 17.2811L27.1174 17.2317C26.9616 17.0804 26.8078 16.9271 26.656 16.7717C28.2275 14.5865 29.5722 12.2469 30.6694 9.78907L30.7134 9.6904L30.744 9.5864C30.8894 9.1024 31.0547 8.1824 30.468 7.3504C29.86 6.49174 28.888 6.33707 28.236 6.33707H25.24C24.6127 6.30848 23.9924 6.47907 23.4679 6.82442C22.9434 7.16976 22.5416 7.67217 22.32 8.25974C21.6753 9.79526 20.868 11.2574 19.912 12.6211V9.1104C19.912 8.65707 19.8694 7.89707 19.3827 7.25707C18.8014 6.48907 17.96 6.33707 17.376 6.33707H12.6214C12.0009 6.3228 11.3988 6.54769 10.9396 6.96517C10.4804 7.38265 10.1994 7.96075 10.1547 8.57974L10.1507 8.63974V8.69974C10.1507 9.3464 10.4067 9.82374 10.612 10.1237C10.704 10.2584 10.8014 10.3811 10.864 10.4584L10.8774 10.4757C10.944 10.5584 10.988 10.6131 11.032 10.6744C11.1494 10.8317 11.316 11.0771 11.364 11.7091V13.6731C10.4096 12.0748 9.62702 10.3801 9.02936 8.61707L9.0187 8.58774L9.00803 8.55974C8.84536 8.1344 8.58536 7.51574 8.06403 7.04374C7.45603 6.4904 6.73603 6.33707 6.08136 6.33707H3.04136C2.3787 6.33707 1.58003 6.49174 0.984031 7.11974C0.398698 7.7384 0.332031 8.47974 0.332031 8.87174V9.0504L0.369365 9.22374C1.2111 13.1314 2.94568 16.7914 5.43736 19.9171C6.57653 21.7135 8.12308 23.2161 9.95156 24.303C11.78 25.39 13.839 26.0306 15.9614 26.1731L16.016 26.1771H16.072C17.04 26.1771 18.0494 26.0931 18.808 25.5877C19.8307 24.9051 19.912 23.8584 19.912 23.3357V21.8184C20.1747 22.0317 20.5 22.3171 20.8987 22.7011C21.3814 23.1837 21.7654 23.6024 22.0947 23.9677L22.2707 24.1624C22.5267 24.4477 22.7787 24.7291 23.008 24.9597C23.296 25.2491 23.652 25.5677 24.0974 25.8037C24.5814 26.0584 25.0894 26.1744 25.628 26.1744H28.6694C29.3107 26.1744 30.2294 26.0224 30.876 25.2731C31.58 24.4571 31.5267 23.4557 31.3054 22.7371L31.2654 22.6077L31.2054 22.4864ZM23.5787 22.6277C23.1655 22.1658 22.74 21.715 22.3027 21.2757L22.2987 21.2717C20.4894 19.5277 19.6454 19.2251 19.048 19.2251C18.7294 19.2251 18.3787 19.2597 18.1507 19.5451C18.048 19.6812 17.9807 19.8406 17.9547 20.0091C17.9226 20.2047 17.9083 20.4029 17.912 20.6011V23.3357C17.912 23.6757 17.856 23.8184 17.6987 23.9224C17.4894 24.0624 17.0427 24.1757 16.084 24.1757C14.263 24.0518 12.4973 23.4975 10.9323 22.5582C9.3672 21.619 8.04739 20.3217 7.08136 18.7731L7.0707 18.7557L7.05736 18.7397C4.73619 15.8506 3.11849 12.4614 2.33203 8.83974C2.33736 8.6664 2.3747 8.56107 2.43603 8.49707C2.4987 8.4304 2.65203 8.33707 3.04136 8.33707H6.08136C6.4187 8.33707 6.5947 8.41174 6.72136 8.52507C6.8627 8.65574 6.98803 8.87574 7.13736 9.26774C7.88403 11.4624 8.89203 13.5157 9.84803 15.0237C10.3254 15.7784 10.7947 16.4064 11.2187 16.8504C11.4307 17.0717 11.6374 17.2557 11.836 17.3864C12.0267 17.5117 12.244 17.6117 12.468 17.6117C12.5854 17.6117 12.7227 17.5984 12.8547 17.5411C12.9973 17.4781 13.1146 17.3692 13.188 17.2317C13.3254 16.9811 13.364 16.6117 13.364 16.1277V11.6304C13.2934 10.5397 12.964 9.92507 12.644 9.48907C12.5792 9.40186 12.5125 9.31607 12.444 9.23174L12.4267 9.2104C12.3698 9.14134 12.3156 9.07018 12.264 8.99707C12.1984 8.91553 12.1589 8.81609 12.1507 8.71174C12.1612 8.60579 12.2117 8.50784 12.292 8.43794C12.3723 8.36804 12.4763 8.33148 12.5827 8.33574H17.376C17.6507 8.33574 17.7427 8.4024 17.7894 8.46507C17.856 8.55174 17.912 8.73174 17.912 9.1104V15.1477C17.912 15.8651 18.2427 16.3504 18.7227 16.3504C19.2747 16.3504 19.6734 16.0157 20.3694 15.3197L20.3814 15.3064L20.392 15.2944C21.9533 13.3908 23.2289 11.2698 24.1787 8.9984L24.184 8.9824C24.2554 8.78172 24.3905 8.60989 24.5686 8.49313C24.7467 8.37637 24.9582 8.3211 25.1707 8.33574H28.2374C28.6534 8.33574 28.7894 8.4424 28.8347 8.50507C28.8814 8.57174 28.9147 8.7144 28.8347 8.9944C27.7395 11.4429 26.3856 13.7672 24.796 15.9277L24.7854 15.9437C24.632 16.1797 24.4627 16.4411 24.4387 16.7397C24.412 17.0624 24.5507 17.3544 24.7947 17.6691C24.972 17.9304 25.3387 18.2891 25.7107 18.6531L25.7454 18.6877C26.1347 19.0691 26.5574 19.4824 26.896 19.8824L26.9054 19.8917L26.9147 19.9024C27.9246 20.9097 28.7644 22.0742 29.4014 23.3504C29.5027 23.6971 29.4414 23.8757 29.3614 23.9677C29.2694 24.0744 29.0627 24.1744 28.6707 24.1744H25.628C25.4207 24.1795 25.2155 24.1312 25.032 24.0344C24.8072 23.9036 24.6032 23.7401 24.4267 23.5491C24.236 23.3584 24.0294 23.1277 23.776 22.8464L23.58 22.6277H23.5787Z" fill="#3F3F3F"/>
</svg>
